<svg xmlns="http://www.w3.org/2000/svg" viewBox="0 0 1280 400" width="1280" height="400" role="img" aria-label="AI Cinema Method">
  <rect x="0" y="0" width="1280" height="400" fill="#0B0B0C"/>
  <g>
    <rect x="726" y="108" width="18" height="18" fill="none" stroke="#3A3A3C" stroke-width="1.25"/>
    <rect x="772" y="108" width="18" height="18" fill="none" stroke="#3A3A3C" stroke-width="1.25"/>
    <rect x="818" y="108" width="18" height="18" fill="none" stroke="#3A3A3C" stroke-width="1.25"/>
    <rect x="864" y="108" width="18" height="18" fill="none" stroke="#3A3A3C" stroke-width="1.25"/>
    <rect x="910" y="108" width="18" height="18" fill="none" stroke="#3A3A3C" stroke-width="1.25"/>
    <rect x="956" y="108" width="18" height="18" fill="none" stroke="#3A3A3C" stroke-width="1.25"/>
    <rect x="1002" y="108" width="18" height="18" fill="none" stroke="#3A3A3C" stroke-width="1.25"/>
    <rect x="726" y="154" width="18" height="18" fill="none" stroke="#3A3A3C" stroke-width="1.25"/>
    <rect x="772" y="154" width="18" height="18" fill="none" stroke="#3A3A3C" stroke-width="1.25"/>
    <rect x="818" y="154" width="18" height="18" fill="none" stroke="#3A3A3C" stroke-width="1.25"/>
    <rect x="864" y="154" width="18" height="18" fill="none" stroke="#3A3A3C" stroke-width="1.25"/>
    <rect x="956" y="154" width="18" height="18" fill="none" stroke="#3A3A3C" stroke-width="1.25"/>
    <rect x="1002" y="154" width="18" height="18" fill="none" stroke="#3A3A3C" stroke-width="1.25"/>
    <rect x="726" y="200" width="18" height="18" fill="none" stroke="#3A3A3C" stroke-width="1.25"/>
    <rect x="772" y="200" width="18" height="18" fill="none" stroke="#3A3A3C" stroke-width="1.25"/>
    <rect x="818" y="200" width="18" height="18" fill="none" stroke="#3A3A3C" stroke-width="1.25"/>
    <rect x="864" y="200" width="18" height="18" fill="none" stroke="#3A3A3C" stroke-width="1.25"/>
    <rect x="910" y="200" width="18" height="18" fill="none" stroke="#3A3A3C" stroke-width="1.25"/>
    <rect x="956" y="200" width="18" height="18" fill="none" stroke="#3A3A3C" stroke-width="1.25"/>
    <rect x="1002" y="200" width="18" height="18" fill="none" stroke="#3A3A3C" stroke-width="1.25"/>
    <rect x="726" y="246" width="18" height="18" fill="none" stroke="#3A3A3C" stroke-width="1.25"/>
    <rect x="772" y="246" width="18" height="18" fill="none" stroke="#3A3A3C" stroke-width="1.25"/>
    <rect x="818" y="246" width="18" height="18" fill="none" stroke="#3A3A3C" stroke-width="1.25"/>
    <rect x="864" y="246" width="18" height="18" fill="none" stroke="#3A3A3C" stroke-width="1.25"/>
    <rect x="910" y="246" width="18" height="18" fill="none" stroke="#3A3A3C" stroke-width="1.25"/>
    <rect x="956" y="246" width="18" height="18" fill="none" stroke="#3A3A3C" stroke-width="1.25"/>
    <rect x="1002" y="246" width="18" height="18" fill="none" stroke="#3A3A3C" stroke-width="1.25"/>
    <rect x="726" y="292" width="18" height="18" fill="none" stroke="#3A3A3C" stroke-width="1.25"/>
    <rect x="772" y="292" width="18" height="18" fill="none" stroke="#3A3A3C" stroke-width="1.25"/>
    <rect x="818" y="292" width="18" height="18" fill="none" stroke="#3A3A3C" stroke-width="1.25"/>
    <rect x="864" y="292" width="18" height="18" fill="none" stroke="#3A3A3C" stroke-width="1.25"/>
    <rect x="910" y="292" width="18" height="18" fill="none" stroke="#3A3A3C" stroke-width="1.25"/>
    <rect x="956" y="292" width="18" height="18" fill="none" stroke="#3A3A3C" stroke-width="1.25"/>
    <rect x="1002" y="292" width="18" height="18" fill="none" stroke="#3A3A3C" stroke-width="1.25"/>
    <rect x="910" y="154" width="18" height="18" fill="none" stroke="#3A3A3C" stroke-width="1" stroke-dasharray="2 3"/>
    <line x1="919" y1="163" x2="993" y2="105" stroke="#FF4400" stroke-width="1"/>
    <rect x="984" y="96" width="18" height="18" fill="#FF4400" stroke="none"/>
  </g>
  <text x="100" y="196" font-family="Helvetica Neue, Helvetica, Arial, sans-serif" font-weight="300" font-size="64" letter-spacing="1.5" fill="#EDEAE3">AI Cinema Method</text>
  <text x="102" y="240" font-family="Helvetica Neue, Helvetica, Arial, sans-serif" font-weight="400" font-size="22" letter-spacing="0.4" fill="#8F8B84">AI as artistic method, documented from inside a film practice.</text>
</svg>
